<?xml version="1.0" encoding="UTF-8" standalone="yes"?>
<!DOCTYPE svg PUBLIC "-//W3C//DTD SVG 1.1//EN" "http://www.w3.org/Graphics/SVG/1.1/DTD/svg11.dtd">

<svg width="213" height="140" viewBox="0 0 313 223" xmlns="http://www.w3.org/2000/svg" xmlns:xlink="http://www.w3.org/1999/xlink" version="1.1" baseProfile="full">
    <g transform="scale(1.000000,-1.000000) translate(0,-223)">
        <path d="M 1.000000 1.000000 L 314.000000 1.000000 L 314.000000 224.000000 L 1.000000 224.000000 Z" transform="scale(1.000000,1.000000) translate(-1.000000,-1.000000)" fill="#ffffff" opacity="1.000000"></path>
        <path d="M 237.991200 1.025800 L 238.487600 1.101500 L 238.966800 1.224700 L 239.426200 1.392900 L 239.863200 1.603400 L 240.275500 1.853900 L 240.660400 2.141700 L 241.015500 2.464400 L 241.338200 2.819500 L 241.626000 3.204400 L 241.876500 3.616700 L 242.087000 4.053700 L 242.255200 4.513100 L 242.378400 4.992300 L 242.454100 5.488700 L 242.479900 5.999900 L 242.479900 56.240000 L 242.454100 56.751200 L 242.378400 57.247600 L 242.255200 57.726800 L 242.087000 58.186200 L 241.876500 58.623200 L 241.626000 59.035500 L 241.338200 59.420400 L 241.015500 59.775500 L 240.660400 60.098200 L 240.275500 60.386000 L 239.863200 60.636500 L 239.426200 60.847000 L 238.966800 61.015200 L 238.487600 61.138400 L 237.991200 61.214100 L 237.479900 61.240000 L 6.000000 61.240000 L 5.488700 61.214100 L 4.992300 61.138400 L 4.513100 61.015200 L 4.053700 60.847000 L 3.616700 60.636500 L 3.204400 60.386000 L 2.819500 60.098200 L 2.464400 59.775500 L 2.141700 59.420400 L 1.853900 59.035500 L 1.603400 58.623200 L 1.392900 58.186200 L 1.224700 57.726800 L 1.101500 57.247600 L 1.025800 56.751200 L 1.000000 56.240000 L 1.000000 5.999900 L 1.025800 5.488700 L 1.101500 4.992300 L 1.224700 4.513100 L 1.392900 4.053700 L 1.603400 3.616700 L 1.853900 3.204400 L 2.141700 2.819500 L 2.464400 2.464400 L 2.819500 2.141700 L 3.204400 1.853900 L 3.616700 1.603400 L 4.053700 1.392900 L 4.513100 1.224700 L 4.992300 1.101500 L 5.488700 1.025800 L 6.000000 0.999900 L 86.148000 0.999900 L 86.148000 2.999900 L 6.000000 2.999900 L 5.395300 3.060900 L 4.832200 3.235700 L 4.322600 3.512300 L 3.878600 3.878600 L 3.512300 4.322600 L 3.235700 4.832200 L 3.060900 5.395300 L 3.000000 5.999900 L 3.000000 56.240000 L 3.060900 56.844600 L 3.235700 57.407700 L 3.512300 57.917300 L 3.878600 58.361300 L 4.322600 58.727600 L 4.832200 59.004200 L 5.395300 59.179000 L 6.000000 59.240000 L 237.479900 59.240000 L 238.084600 59.179000 L 238.647700 59.004200 L 239.157300 58.727600 L 239.601300 58.361300 L 239.967600 57.917300 L 240.244200 57.407700 L 240.419000 56.844600 L 240.479900 56.240000 L 240.479900 5.999900 L 240.419000 5.395300 L 240.244200 4.832200 L 239.967600 4.322600 L 239.601300 3.878600 L 239.157300 3.512300 L 238.647700 3.235700 L 238.084600 3.060900 L 237.479900 2.999900 L 157.332000 2.999900 L 157.332000 0.999900 L 237.479900 0.999900 Z" transform="scale(1.000000,1.000000) translate(35.260000,43.020000)" fill="#000000" opacity="1.000000"></path>
        <path d="M 16.120000 16.480000 Q 16.888000 16.480000 17.284000 15.976000 Q 17.680000 15.472000 17.680000 14.728000 Q 17.680000 14.248000 17.512000 13.720000 Q 17.344000 13.192000 17.128000 12.760000 Q 17.032000 12.688000 16.948000 12.724000 Q 16.864000 12.760000 16.888000 12.880000 Q 17.056000 13.312000 17.056000 13.768000 Q 17.056000 14.224000 16.876000 14.596000 Q 16.696000 14.968000 16.300000 15.208000 Q 15.904000 15.448000 15.304000 15.448000 Q 14.440000 15.448000 13.720000 15.124000 Q 13.000000 14.800000 12.388000 13.984000 Q 11.776000 13.168000 11.224000 11.764000 Q 10.672000 10.360000 10.120000 8.200000 Q 9.664000 6.472000 9.064000 5.176000 Q 8.464000 3.880000 7.672000 2.992000 Q 8.704000 2.584000 9.844000 2.272000 Q 10.984000 1.960000 12.400000 1.960000 Q 13.528000 1.960000 14.260000 2.356000 Q 14.992000 2.752000 15.544000 3.856000 Q 15.640000 3.904000 15.712000 3.844000 Q 15.784000 3.784000 15.736000 3.664000 Q 15.160000 2.368000 14.200000 1.696000 Q 13.240000 1.024000 11.632000 1.024000 Q 10.216000 1.024000 9.112000 1.432000 Q 8.008000 1.840000 6.976000 2.320000 Q 5.368000 1.024000 2.848000 1.024000 Q 1.936000 1.024000 1.468000 1.396000 Q 1.000000 1.768000 1.000000 2.200000 Q 1.000000 2.512000 1.180000 2.836000 Q 1.360000 3.160000 1.708000 3.412000 Q 2.056000 3.664000 2.536000 3.832000 Q 3.016000 4.000000 3.616000 4.000000 Q 4.552000 4.000000 5.428000 3.736000 Q 6.304000 3.472000 7.216000 3.136000 Q 8.296000 4.528000 9.112000 7.600000 Q 9.640000 9.568000 10.348000 11.212000 Q 11.056000 12.856000 11.932000 14.020000 Q 12.808000 15.184000 13.864000 15.832000 Q 14.920000 16.480000 16.120000 16.480000 Z M 3.616000 1.528000 Q 4.528000 1.528000 5.248000 1.744000 Q 5.968000 1.960000 6.592000 2.488000 Q 5.752000 2.896000 4.876000 3.184000 Q 4.000000 3.472000 2.944000 3.472000 Q 2.272000 3.472000 1.984000 3.256000 Q 1.696000 3.040000 1.696000 2.704000 Q 1.696000 2.224000 2.200000 1.876000 Q 2.704000 1.528000 3.616000 1.528000 Z M 22.528000 2.536000 Q 22.576000 2.584000 22.648000 2.536000 Q 22.720000 2.488000 22.696000 2.392000 Q 22.192000 1.696000 21.700000 1.360000 Q 21.208000 1.024000 20.872000 1.024000 Q 20.656000 1.024000 20.524000 1.240000 Q 20.392000 1.456000 20.356000 1.828000 Q 20.320000 2.200000 20.380000 2.668000 Q 20.440000 3.136000 20.584000 3.640000 Q 19.936000 2.632000 19.216000 1.900000 Q 18.496000 1.168000 17.824000 1.024000 Q 17.392000 1.024000 17.092000 1.444000 Q 16.792000 1.864000 16.792000 2.752000 Q 16.792000 3.544000 17.116000 4.324000 Q 17.440000 5.104000 17.992000 5.740000 Q 18.544000 6.376000 19.264000 6.760000 Q 19.984000 7.144000 20.776000 7.144000 Q 21.208000 7.144000 21.520000 7.048000 Q 21.832000 6.952000 22.096000 6.760000 Q 22.240000 6.880000 22.492000 6.988000 Q 22.744000 7.096000 22.960000 7.096000 Q 23.080000 7.096000 23.032000 6.976000 Q 22.480000 6.304000 22.084000 5.488000 Q 21.688000 4.672000 21.472000 3.904000 Q 21.256000 3.136000 21.196000 2.548000 Q 21.136000 1.960000 21.280000 1.744000 Q 21.400000 1.576000 21.712000 1.732000 Q 22.024000 1.888000 22.528000 2.536000 Z M 18.352000 1.840000 Q 18.616000 1.840000 19.036000 2.212000 Q 19.456000 2.584000 19.912000 3.184000 Q 20.368000 3.784000 20.812000 4.540000 Q 21.256000 5.296000 21.592000 6.064000 Q 21.496000 6.376000 21.148000 6.568000 Q 20.800000 6.760000 20.344000 6.760000 Q 19.816000 6.760000 19.348000 6.484000 Q 18.880000 6.208000 18.520000 5.716000 Q 18.160000 5.224000 17.944000 4.552000 Q 17.728000 3.880000 17.728000 3.064000 Q 17.728000 2.536000 17.908000 2.188000 Q 18.088000 1.840000 18.352000 1.840000 Z M 24.664000 1.024000 Q 24.352000 1.024000 24.112000 1.324000 Q 23.872000 1.624000 23.872000 2.104000 Q 23.872000 2.488000 23.980000 3.004000 Q 24.088000 3.520000 24.268000 4.096000 Q 24.448000 4.672000 24.712000 5.248000 Q 24.976000 5.824000 25.312000 6.328000 Q 25.048000 6.136000 24.760000 5.908000 Q 24.472000 5.680000 24.280000 5.488000 Q 24.208000 5.440000 24.160000 5.524000 Q 24.112000 5.608000 24.136000 5.680000 Q 24.304000 5.848000 24.568000 6.064000 Q 24.832000 6.280000 25.132000 6.496000 Q 25.432000 6.712000 25.756000 6.916000 Q 26.080000 7.120000 26.368000 7.264000 Q 26.464000 7.288000 26.524000 7.216000 Q 26.584000 7.144000 26.560000 7.048000 Q 25.792000 6.064000 25.324000 4.876000 Q 24.856000 3.688000 24.856000 2.608000 Q 24.856000 1.912000 25.264000 1.912000 Q 25.576000 1.912000 26.044000 2.332000 Q 26.512000 2.752000 27.016000 3.436000 Q 27.520000 4.120000 28.036000 4.984000 Q 28.552000 5.848000 28.984000 6.736000 Q 29.056000 6.904000 29.260000 7.036000 Q 29.464000 7.168000 29.704000 7.168000 Q 30.016000 7.168000 29.920000 6.976000 Q 29.584000 6.352000 29.320000 5.812000 Q 29.056000 5.272000 28.888000 4.744000 Q 28.720000 4.216000 28.636000 3.664000 Q 28.552000 3.112000 28.552000 2.464000 Q 28.552000 1.696000 28.984000 1.696000 Q 29.176000 1.696000 29.416000 1.900000 Q 29.656000 2.104000 29.896000 2.440000 Q 29.968000 2.488000 30.040000 2.440000 Q 30.112000 2.392000 30.064000 2.272000 Q 29.728000 1.768000 29.284000 1.396000 Q 28.840000 1.024000 28.432000 1.024000 Q 28.120000 1.024000 27.904000 1.336000 Q 27.688000 1.648000 27.688000 2.176000 Q 27.688000 2.752000 27.796000 3.412000 Q 27.904000 4.072000 28.144000 4.744000 Q 27.688000 3.856000 27.184000 3.172000 Q 26.680000 2.488000 26.212000 2.008000 Q 25.744000 1.528000 25.336000 1.276000 Q 24.928000 1.024000 24.664000 1.024000 Z M 33.184000 6.496000 Q 33.184000 6.136000 33.112000 5.656000 Q 33.040000 5.176000 32.920000 4.696000 Q 33.400000 5.848000 33.976000 6.508000 Q 34.552000 7.168000 35.224000 7.168000 Q 35.488000 7.168000 35.704000 7.024000 Q 35.920000 6.880000 35.920000 6.616000 Q 35.920000 6.424000 35.776000 6.124000 Q 35.632000 5.824000 35.488000 5.680000 Q 35.344000 5.584000 35.344000 5.752000 Q 35.344000 6.160000 34.792000 6.160000 Q 33.952000 6.160000 33.280000 4.900000 Q 32.608000 3.640000 32.008000 1.408000 Q 31.960000 1.168000 31.684000 1.096000 Q 31.408000 1.024000 31.216000 1.024000 Q 30.952000 1.024000 31.096000 1.288000 Q 31.312000 1.792000 31.504000 2.380000 Q 31.696000 2.968000 31.876000 3.568000 Q 32.056000 4.168000 32.176000 4.744000 Q 32.296000 5.320000 32.368000 5.800000 Q 32.464000 6.520000 32.128000 6.520000 Q 31.936000 6.520000 31.684000 6.304000 Q 31.432000 6.088000 31.216000 5.800000 Q 31.120000 5.752000 31.048000 5.812000 Q 30.976000 5.872000 31.024000 5.968000 Q 31.384000 6.424000 31.828000 6.796000 Q 32.272000 7.168000 32.656000 7.168000 Q 33.184000 7.168000 33.184000 6.496000 Z M 39.904000 6.112000 Q 39.904000 5.776000 39.640000 5.488000 Q 39.376000 5.200000 38.920000 4.972000 Q 38.464000 4.744000 37.876000 4.552000 Q 37.288000 4.360000 36.640000 4.192000 Q 36.616000 3.928000 36.604000 3.664000 Q 36.592000 3.400000 36.592000 3.088000 Q 36.592000 2.488000 36.856000 2.080000 Q 37.120000 1.672000 37.600000 1.672000 Q 38.080000 1.672000 38.500000 1.912000 Q 38.920000 2.152000 39.256000 2.560000 Q 39.352000 2.608000 39.400000 2.536000 Q 39.448000 2.464000 39.400000 2.368000 Q 38.992000 1.816000 38.380000 1.420000 Q 37.768000 1.024000 37.096000 1.024000 Q 36.472000 1.024000 36.076000 1.432000 Q 35.680000 1.840000 35.680000 2.632000 Q 35.680000 3.352000 35.944000 4.156000 Q 36.208000 4.960000 36.640000 5.632000 Q 37.072000 6.304000 37.636000 6.736000 Q 38.200000 7.168000 38.824000 7.168000 Q 39.280000 7.168000 39.592000 6.844000 Q 39.904000 6.520000 39.904000 6.112000 Z M 38.320000 6.544000 Q 37.768000 6.544000 37.336000 6.064000 Q 36.904000 5.584000 36.712000 4.552000 Q 37.864000 4.720000 38.404000 5.044000 Q 38.944000 5.368000 38.944000 5.776000 Q 38.944000 6.112000 38.776000 6.328000 Q 38.608000 6.544000 38.320000 6.544000 Z M 46.672000 2.560000 Q 46.744000 2.608000 46.816000 2.560000 Q 46.888000 2.512000 46.864000 2.416000 Q 46.456000 1.864000 45.964000 1.444000 Q 45.472000 1.024000 45.040000 1.024000 Q 44.296000 1.024000 44.296000 1.984000 Q 44.296000 2.800000 44.584000 3.796000 Q 44.872000 4.792000 45.376000 5.800000 Q 45.472000 5.968000 45.472000 6.136000 Q 45.472000 6.400000 45.232000 6.400000 Q 44.344000 6.400000 43.276000 5.176000 Q 42.208000 3.952000 41.296000 1.336000 Q 41.248000 1.192000 41.032000 1.108000 Q 40.816000 1.024000 40.624000 1.024000 Q 40.360000 1.024000 40.432000 1.240000 Q 40.840000 2.272000 41.284000 3.568000 Q 41.728000 4.864000 42.064000 6.136000 Q 42.160000 6.592000 41.896000 6.592000 Q 41.656000 6.592000 41.416000 6.352000 Q 41.176000 6.112000 40.912000 5.728000 Q 40.864000 5.680000 40.804000 5.752000 Q 40.744000 5.824000 40.768000 5.896000 Q 41.032000 6.304000 41.488000 6.736000 Q 41.944000 7.168000 42.472000 7.168000 Q 43.072000 7.168000 42.880000 6.352000 Q 42.784000 5.824000 42.616000 5.236000 Q 42.448000 4.648000 42.256000 4.072000 Q 42.592000 4.720000 43.048000 5.296000 Q 43.504000 5.872000 43.996000 6.280000 Q 44.488000 6.688000 44.980000 6.928000 Q 45.472000 7.168000 45.904000 7.168000 Q 46.192000 7.168000 46.348000 7.024000 Q 46.504000 6.880000 46.504000 6.688000 Q 46.504000 6.376000 46.360000 6.064000 Q 45.856000 5.152000 45.508000 4.156000 Q 45.160000 3.160000 45.160000 2.320000 Q 45.160000 1.720000 45.544000 1.720000 Q 46.048000 1.720000 46.672000 2.560000 Z M 51.160000 5.224000 Q 51.040000 5.224000 51.040000 5.344000 Q 51.232000 5.824000 51.052000 6.184000 Q 50.872000 6.544000 50.320000 6.544000 Q 49.936000 6.544000 49.600000 6.268000 Q 49.264000 5.992000 49.024000 5.500000 Q 48.784000 5.008000 48.640000 4.348000 Q 48.496000 3.688000 48.496000 2.920000 Q 48.496000 1.744000 49.312000 1.744000 Q 50.248000 1.744000 51.184000 2.872000 Q 51.280000 2.920000 51.352000 2.860000 Q 51.424000 2.800000 51.376000 2.680000 Q 50.824000 1.984000 50.152000 1.492000 Q 49.480000 1.000000 48.832000 1.000000 Q 48.304000 1.000000 47.956000 1.384000 Q 47.608000 1.768000 47.608000 2.440000 Q 47.608000 3.280000 47.884000 4.120000 Q 48.160000 4.960000 48.604000 5.632000 Q 49.048000 6.304000 49.624000 6.724000 Q 50.200000 7.144000 50.800000 7.144000 Q 51.304000 7.144000 51.592000 6.904000 Q 51.880000 6.664000 51.880000 6.328000 Q 51.880000 6.208000 51.808000 6.040000 Q 51.736000 5.872000 51.628000 5.704000 Q 51.520000 5.536000 51.388000 5.404000 Q 51.256000 5.272000 51.160000 5.224000 Z M 56.704000 6.112000 Q 56.704000 5.776000 56.440000 5.488000 Q 56.176000 5.200000 55.720000 4.972000 Q 55.264000 4.744000 54.676000 4.552000 Q 54.088000 4.360000 53.440000 4.192000 Q 53.416000 3.928000 53.404000 3.664000 Q 53.392000 3.400000 53.392000 3.088000 Q 53.392000 2.488000 53.656000 2.080000 Q 53.920000 1.672000 54.400000 1.672000 Q 54.880000 1.672000 55.300000 1.912000 Q 55.720000 2.152000 56.056000 2.560000 Q 56.152000 2.608000 56.200000 2.536000 Q 56.248000 2.464000 56.200000 2.368000 Q 55.792000 1.816000 55.180000 1.420000 Q 54.568000 1.024000 53.896000 1.024000 Q 53.272000 1.024000 52.876000 1.432000 Q 52.480000 1.840000 52.480000 2.632000 Q 52.480000 3.352000 52.744000 4.156000 Q 53.008000 4.960000 53.440000 5.632000 Q 53.872000 6.304000 54.436000 6.736000 Q 55.000000 7.168000 55.624000 7.168000 Q 56.080000 7.168000 56.392000 6.844000 Q 56.704000 6.520000 56.704000 6.112000 Z M 55.120000 6.544000 Q 54.568000 6.544000 54.136000 6.064000 Q 53.704000 5.584000 53.512000 4.552000 Q 54.664000 4.720000 55.204000 5.044000 Q 55.744000 5.368000 55.744000 5.776000 Q 55.744000 6.112000 55.576000 6.328000 Q 55.408000 6.544000 55.120000 6.544000 Z" transform="scale(1.000000,1.000000) translate(128.148000,35.280000)" fill="#000000" opacity="1.000000"></path>
        <path d="M 3.160000 16.080000 L 16.040000 16.080000 L 16.040000 14.160000 L 3.160000 14.160000 L 3.160000 1.240000 L 1.000000 1.240000 L 1.000000 29.720000 L 18.280000 29.720000 L 18.280000 27.800000 L 3.160000 27.800000 Z M 43.160000 10.480000 Q 43.160000 6.320000 40.440000 3.640000 Q 37.680000 1.000000 33.400000 1.000000 Q 29.120000 1.000000 26.360000 3.640000 Q 23.640000 6.320000 23.640000 10.480000 L 23.640000 29.720000 L 25.800000 29.720000 L 25.800000 10.760000 Q 25.800000 7.200000 27.880000 5.080000 Q 29.960000 2.920000 33.400000 2.920000 Q 36.840000 2.920000 38.920000 5.080000 Q 41.000000 7.200000 41.000000 10.760000 L 41.000000 29.720000 L 43.160000 29.720000 Z M 53.680000 27.840000 L 62.080000 27.840000 Q 64.960000 27.840000 66.600000 26.440000 Q 68.360000 24.920000 68.360000 22.080000 Q 68.360000 19.200000 66.600000 17.680000 Q 64.960000 16.280000 62.080000 16.280000 L 58.680000 16.280000 L 58.680000 14.360000 L 61.520000 14.360000 L 68.320000 1.240000 L 70.880000 1.240000 L 63.960000 14.400000 Q 67.040000 14.920000 68.760000 16.920000 Q 70.560000 18.920000 70.560000 22.120000 Q 70.560000 25.720000 68.200000 27.800000 Q 65.960000 29.760000 62.360000 29.760000 L 51.520000 29.760000 L 51.520000 1.240000 L 53.680000 1.240000 Z M 80.000000 26.000000 L 80.000000 1.240000 L 77.840000 1.240000 L 77.840000 29.720000 L 80.000000 29.720000 L 96.440000 5.040000 L 96.440000 29.720000 L 98.600000 29.720000 L 98.600000 1.240000 L 96.440000 1.240000 Z M 107.400000 29.720000 L 109.560000 29.720000 L 109.560000 1.240000 L 107.400000 1.240000 Z M 125.800000 1.240000 L 123.640000 1.240000 L 123.640000 27.800000 L 115.160000 27.800000 L 115.160000 29.720000 L 134.320000 29.720000 L 134.320000 27.800000 L 125.800000 27.800000 Z M 159.040000 10.480000 Q 159.040000 6.320000 156.320000 3.640000 Q 153.560000 1.000000 149.280000 1.000000 Q 145.000000 1.000000 142.240000 3.640000 Q 139.520000 6.320000 139.520000 10.480000 L 139.520000 29.720000 L 141.680000 29.720000 L 141.680000 10.760000 Q 141.680000 7.200000 143.760000 5.080000 Q 145.840000 2.920000 149.280000 2.920000 Q 152.720000 2.920000 154.800000 5.080000 Q 156.880000 7.200000 156.880000 10.760000 L 156.880000 29.720000 L 159.040000 29.720000 Z M 169.560000 27.840000 L 177.960000 27.840000 Q 180.840000 27.840000 182.480000 26.440000 Q 184.240000 24.920000 184.240000 22.080000 Q 184.240000 19.200000 182.480000 17.680000 Q 180.840000 16.280000 177.960000 16.280000 L 174.560000 16.280000 L 174.560000 14.360000 L 177.400000 14.360000 L 184.200000 1.240000 L 186.760000 1.240000 L 179.840000 14.400000 Q 182.920000 14.920000 184.640000 16.920000 Q 186.440000 18.920000 186.440000 22.120000 Q 186.440000 25.720000 184.080000 27.800000 Q 181.840000 29.760000 178.240000 29.760000 L 167.400000 29.760000 L 167.400000 1.240000 L 169.560000 1.240000 Z M 193.720000 29.720000 L 211.000000 29.720000 L 211.000000 27.800000 L 195.880000 27.800000 L 195.880000 16.560000 L 208.760000 16.560000 L 208.760000 14.640000 L 195.880000 14.640000 L 195.880000 3.160000 L 211.000000 3.160000 L 211.000000 1.240000 L 193.720000 1.240000 Z" transform="scale(1.000000,1.000000) translate(51.000000,58.760000)" fill="#000000" opacity="1.000000"></path>
        <path d="M 22.142578 34.984375 L 8.763672 34.984375 L 8.763672 1.000000 L 6.175781 1.000000 L 6.175781 51.244141 Q 6.175781 56.224609 9.740234 59.740234 Q 13.304688 63.304688 18.236328 63.304688 L 22.142578 63.304688 L 22.142578 60.716797 L 18.236328 60.716797 Q 14.330078 60.716797 11.546875 57.933594 Q 8.763672 55.150391 8.763672 51.244141 L 8.763672 37.572266 L 22.142578 37.572266 Z M 3.587891 1.000000 L 1.000000 1.000000 L 1.000000 51.244141 Q 1.000000 58.324219 6.078125 63.402344 Q 11.107422 68.431641 18.236328 68.431641 L 22.142578 68.431641 L 22.142578 65.843750 L 18.236328 65.843750 Q 12.132812 65.843750 7.884766 61.595703 Q 3.587891 57.201172 3.587891 51.244141 Z M 11.302734 1.000000 L 11.302734 32.396484 L 22.142578 32.396484 L 22.142578 29.808594 L 13.890625 29.808594 L 13.890625 1.000000 Z M 11.400391 51.244141 Q 11.400391 54.076172 13.451172 56.126953 Q 15.501953 58.177734 18.285156 58.177734 L 22.191406 58.177734 L 22.191406 55.589844 L 18.285156 55.589844 Q 16.527344 55.589844 15.257812 54.320312 Q 13.988281 53.050781 13.988281 51.244141 L 13.890625 42.699219 L 22.142578 42.699219 L 22.142578 40.111328 L 11.302734 40.111328 Z" transform="scale(1.000000,1.000000) translate(145.404297,119.260000)" fill="#102815" opacity="1.000000"></path>
    </g>
</svg>